{
    "asset" : {
        "generator" : "Khronos glTF Blender I/O v1.6.16",
        "version" : "2.0"
    },
    "scene" : 0,
    "scenes" : [
        {
            "name" : "Scene",
            "nodes" : [
                0,
                1,
                2,
                3,
                4,
                5
            ]
        }
    ],
    "nodes" : [
        {
            "name" : "Light",
            "rotation" : [
                0.16907575726509094,
                0.7558803558349609,
                -0.27217137813568115,
                0.570947527885437
            ],
            "translation" : [
                4.076245307922363,
                5.903861999511719,
                -1.0054539442062378
            ]
        },
        {
            "name" : "Camera",
            "rotation" : [
                0.46900513768196106,
                0.5291825532913208,
                -0.46900516748428345,
                0.5291825532913208
            ],
            "translation" : [
                17.100000381469727,
                2.0399999618530273,
                0
            ]
        },
        {
            "mesh" : 0,
            "name" : "Sphere",
            "scale" : [
                0.5,
                0.5,
                0.5
            ]
        },
        {
            "mesh" : 1,
            "name" : "Torus",
            "rotation" : [
                0,
                0,
                -0.7071068286895752,
                0.7071068286895752
            ],
            "scale" : [
                0.4000000059604645,
                0.4000000059604645,
                1.2000000476837158
            ]
        },
        {
            "mesh" : 2,
            "name" : "Torus.001",
            "rotation" : [
                -0.6601410508155823,
                -0.5720614194869995,
                -0.2534044086933136,
                0.4156269133090973
            ],
            "scale" : [
                0.4000000059604645,
                0.4000000059604645,
                1.2000000476837158
            ]
        },
        {
            "mesh" : 3,
            "name" : "Torus.002",
            "rotation" : [
                -0.2534044086933136,
                -0.4156269133090973,
                -0.6601410508155823,
                0.5720614194869995
            ],
            "scale" : [
                0.4000000059604645,
                0.4000000059604645,
                1.2000000476837158
            ]
        }
    ],
    "materials" : [
        {
            "doubleSided" : true,
            "emissiveFactor" : [
                1,
                1,
                1
            ],
            "name" : "Material.002",
            "pbrMetallicRoughness" : {
                "baseColorFactor" : [
                    0.800000011920929,
                    0.800000011920929,
                    0.800000011920929,
                    1
                ],
                "metallicFactor" : 0,
                "roughnessFactor" : 0.5
            }
        },
        {
            "doubleSided" : true,
            "emissiveFactor" : [
                0,
                1,
                1
            ],
            "name" : "blu.002",
            "pbrMetallicRoughness" : {
                "baseColorFactor" : [
                    0,
                    0.6938719749450684,
                    1,
                    1
                ],
                "metallicFactor" : 0,
                "roughnessFactor" : 0.25
            }
        },
        {
            "doubleSided" : true,
            "emissiveFactor" : [
                0,
                1,
                1
            ],
            "name" : "blu.001",
            "pbrMetallicRoughness" : {
                "baseColorFactor" : [
                    0,
                    0.6866854429244995,
                    1,
                    1
                ],
                "metallicFactor" : 0,
                "roughnessFactor" : 0.25
            }
        }
    ],
    "meshes" : [
        {
            "name" : "Sphere",
            "primitives" : [
                {
                    "attributes" : {
                        "POSITION" : 0,
                        "NORMAL" : 1,
                        "TEXCOORD_0" : 2
                    },
                    "indices" : 3,
                    "material" : 0
                }
            ]
        },
        {
            "name" : "Torus",
            "primitives" : [
                {
                    "attributes" : {
                        "POSITION" : 4,
                        "NORMAL" : 5,
                        "TEXCOORD_0" : 6
                    },
                    "indices" : 7,
                    "material" : 1
                }
            ]
        },
        {
            "name" : "Torus.001",
            "primitives" : [
                {
                    "attributes" : {
                        "POSITION" : 8,
                        "NORMAL" : 9,
                        "TEXCOORD_0" : 10
                    },
                    "indices" : 7,
                    "material" : 2
                }
            ]
        },
        {
            "name" : "Torus.002",
            "primitives" : [
                {
                    "attributes" : {
                        "POSITION" : 11,
                        "NORMAL" : 12,
                        "TEXCOORD_0" : 13
                    },
                    "indices" : 7,
                    "material" : 2
                }
            ]
        }
    ],
    "accessors" : [
        {
            "bufferView" : 0,
            "componentType" : 5126,
            "count" : 610,
            "max" : [
                0.9946063160896301,
                1,
                0.9912253618240356
            ],
            "min" : [
                -0.9946063160896301,
                -1,
                -0.9957342147827148
            ],
            "type" : "VEC3"
        },
        {
            "bufferView" : 1,
            "componentType" : 5126,
            "count" : 610,
            "type" : "VEC3"
        },
        {
            "bufferView" : 2,
            "componentType" : 5126,
            "count" : 610,
            "type" : "VEC2"
        },
        {
            "bufferView" : 3,
            "componentType" : 5123,
            "count" : 3168,
            "type" : "SCALAR"
        },
        {
            "bufferView" : 4,
            "componentType" : 5126,
            "count" : 765,
            "max" : [
                3.259999990463257,
                0.2534812390804291,
                3.2535672187805176
            ],
            "min" : [
                -3.259999990463257,
                -0.2534812390804291,
                -3.2535672187805176
            ],
            "type" : "VEC3"
        },
        {
            "bufferView" : 5,
            "componentType" : 5126,
            "count" : 765,
            "type" : "VEC3"
        },
        {
            "bufferView" : 6,
            "componentType" : 5126,
            "count" : 765,
            "type" : "VEC2"
        },
        {
            "bufferView" : 7,
            "componentType" : 5123,
            "count" : 4200,
            "type" : "SCALAR"
        },
        {
            "bufferView" : 8,
            "componentType" : 5126,
            "count" : 765,
            "max" : [
                3.259999990463257,
                0.2534812390804291,
                3.2535672187805176
            ],
            "min" : [
                -3.259999990463257,
                -0.2534812390804291,
                -3.2535672187805176
            ],
            "type" : "VEC3"
        },
        {
            "bufferView" : 9,
            "componentType" : 5126,
            "count" : 765,
            "type" : "VEC3"
        },
        {
            "bufferView" : 10,
            "componentType" : 5126,
            "count" : 765,
            "type" : "VEC2"
        },
        {
            "bufferView" : 11,
            "componentType" : 5126,
            "count" : 765,
            "max" : [
                3.259999990463257,
                0.2534812390804291,
                3.2535672187805176
            ],
            "min" : [
                -3.259999990463257,
                -0.2534812390804291,
                -3.2535672187805176
            ],
            "type" : "VEC3"
        },
        {
            "bufferView" : 12,
            "componentType" : 5126,
            "count" : 765,
            "type" : "VEC3"
        },
        {
            "bufferView" : 13,
            "componentType" : 5126,
            "count" : 765,
            "type" : "VEC2"
        }
    ],
    "bufferViews" : [
        {
            "buffer" : 0,
            "byteLength" : 7320,
            "byteOffset" : 0
        },
        {
            "buffer" : 0,
            "byteLength" : 7320,
            "byteOffset" : 7320
        },
        {
            "buffer" : 0,
            "byteLength" : 4880,
            "byteOffset" : 14640
        },
        {
            "buffer" : 0,
            "byteLength" : 6336,
            "byteOffset" : 19520
        },
        {
            "buffer" : 0,
            "byteLength" : 9180,
            "byteOffset" : 25856
        },
        {
            "buffer" : 0,
            "byteLength" : 9180,
            "byteOffset" : 35036
        },
        {
            "buffer" : 0,
            "byteLength" : 6120,
            "byteOffset" : 44216
        },
        {
            "buffer" : 0,
            "byteLength" : 8400,
            "byteOffset" : 50336
        },
        {
            "buffer" : 0,
            "byteLength" : 9180,
            "byteOffset" : 58736
        },
        {
            "buffer" : 0,
            "byteLength" : 9180,
            "byteOffset" : 67916
        },
        {
            "buffer" : 0,
            "byteLength" : 6120,
            "byteOffset" : 77096
        },
        {
            "buffer" : 0,
            "byteLength" : 9180,
            "byteOffset" : 83216
        },
        {
            "buffer" : 0,
            "byteLength" : 9180,
            "byteOffset" : 92396
        },
        {
            "buffer" : 0,
            "byteLength" : 6120,
            "byteOffset" : 101576
        }
    ],
    "buffers" : [
        {
            "byteLength" : 107696,
            "uri" : "data:application/octet-stream;base64,"
        }
    ]
}
